<?xml version="1.0" encoding="UTF-8" standalone="no"?>
<svg
   xmlns:dc="http://purl.org/dc/elements/1.1/"
   xmlns:cc="http://creativecommons.org/ns#"
   xmlns:rdf="http://www.w3.org/1999/02/22-rdf-syntax-ns#"
   xmlns:svg="http://www.w3.org/2000/svg"
   xmlns="http://www.w3.org/2000/svg"
   version="1.1"
   id="svg5131"
   viewBox="0 0 498.93409 498.8631"
   height="140.79025mm"
   width="140.81029mm">
  <defs
     id="defs5133" />
  <metadata
     id="metadata5136">
    <rdf:RDF>
      <cc:Work
         rdf:about="">
        <dc:format>image/svg+xml</dc:format>
        <dc:type
           rdf:resource="http://purl.org/dc/dcmitype/StillImage" />
        <dc:title></dc:title>
      </cc:Work>
    </rdf:RDF>
  </metadata>
  <g
     transform="translate(-72.080961,-439.13235)"
     id="layer1">
    <g
       style="fill:#692828;fill-opacity:1;stroke:none"
       transform="matrix(0.93862699,0,0,0.98599529,160.88924,552.55061)"
       id="g5212">
      <g
         id="layer1-2"
         style="display:inline;fill:#692828;fill-opacity:1;stroke:none"
         transform="translate(-232.72379,-191.75887)" />
      <g
         id="layer2"
         style="display:inline;fill:#692828;fill-opacity:1;stroke:none"
         transform="translate(-232.72379,-191.75887)">
        <g
           style="fill:#692828;fill-opacity:1;stroke:none"
           id="g4155"
           transform="translate(22.857143,-175.71429)">
          <g
             style="fill:#692828;fill-opacity:1;stroke:none"
             id="g4276"
             transform="translate(4.2857144,2.8571432)">
            <g
               style="fill:#692828;fill-opacity:1;stroke:none"
               id="g4363">
              <g
                 style="fill:#692828;fill-opacity:1;stroke:none"
                 id="g5258" />
            </g>
          </g>
        </g>
      </g>
    </g>
    <path
       d="M 571.01507,688.5639 A 249.46706,249.43155 0 0 1 321.54802,937.99545 249.46706,249.43155 0 0 1 72.080961,688.5639 249.46706,249.43155 0 0 1 321.54802,439.13235 249.46706,249.43155 0 0 1 571.01507,688.5639 Z M 444.05308,512.55726 c -12.48913,0.2797 -25.75861,9.2975 -28.40447,16.99879 -23.13285,-2.26133 -39.7293,15.90519 -5.6886,17.92894 -1.87297,13.12419 -21.2622,58.64365 20.38581,56.27491 l -0.44365,4.07686 c -14.44139,4.50193 -29.91933,19.70861 -46.49137,49.7061 l 4.56664,2.82896 c -2.30534,12.81346 -6.87275,21.71947 -18.78904,26.0557 -5.61272,-0.83257 -10.41468,-0.90935 -13.10594,0.986 -38.88627,-7.89807 -53.73722,52.69819 -107.41596,66.45068 0.0351,-0.23485 0.0747,-0.46922 0.10633,-0.70483 l -12.32498,2.49002 c -0.0685,0.21909 -0.14794,0.42936 -0.21816,0.64706 l -11.16086,-5.12833 c 20.83546,-23.76082 -7.51571,-14.89022 -24.65179,-7.47007 -32.9414,-12.09612 -23.23291,17.28881 -47.88098,22.90899 -6.09113,5.06371 -7.77201,9.70591 0,13.44573 10.89574,3.54869 6.87006,14.27332 38.87419,9.46133 12.80012,3.98402 7.26887,5.30317 12.79979,3.98441 2.42121,1.28453 4.55499,2.12744 6.61256,2.93489 -0.30569,0.34444 -0.62162,0.71009 -0.92397,1.04954 5.7189,6.95825 7.35057,4.65272 11.1847,4.39653 2.41698,1.85237 5.08622,4.36584 8.25332,8.05358 3.12115,9.86672 0.33101,17.80619 -1.42261,26.39271 -2.5098,3.15402 -2.09598,5.81045 -9.4816,8.96447 -13.64378,11.12937 4.85446,27.17287 13.27461,6.97322 4.58275,-8.26952 9.16483,-11.61456 13.74758,-24.90023 l 7.1112,19.42141 c -17.92545,14.98121 8.43599,28.49244 13.74759,5.47882 -1.98879,-9.14137 -2.29713,-17.0713 -5.6886,-31.87345 15.08112,0.48115 22.72473,9.07094 42.19422,0.99755 2.47505,6.64004 4.66858,13.27822 0.94779,19.91826 -17.54089,14.76849 8.53382,24.55095 10.90421,-2.49003 l 9.00678,-20.41703 c 0,1.63408 13.74868,9.21208 8.53381,20.41703 -11.22793,16.92903 9.99256,19.71323 16.11798,0.49878 -18.44699,-47.37597 -11.31527,-49.28079 -15.17019,-70.71627 16.37249,-11.74505 23.76295,-24.94107 23.704,-39.3416 -0.60541,-6.75217 -2.98743,-6.04021 -4.7408,-7.96884 -6.26155,11.95204 -7.85055,23.90388 -30.81519,35.85594 -22.4124,5.40898 -43.58746,3.0175 -64.92843,1.6735 42.22521,-5.47434 59.06043,-55.44702 97.63188,-63.97993 0.004,0.0196 0.004,0.0361 0.008,0.0558 -3.87174,8.54915 -3.55453,12.69957 1.4226,11.95327 2.63809,3.86201 5.31928,7.60997 10.42939,4.98004 10.57566,0.84282 10.02649,-8.33187 12.32682,-14.94013 17.31122,-13.94312 18.49266,-11.42759 21.10994,-29.49513 l 2.59406,1.60609 -5.6886,46.31482 c 1.7563,1.15713 3.59626,2.19579 5.52177,3.1159 -18.75002,77.26351 -23.55394,81.92431 -32.07098,102.95948 2.52493,0.0445 5.05504,0.33772 7.61168,0.8666 l -1.44827,7.10032 c -21.02346,-24.27598 -36.62406,-9.71229 -17.06761,18.42579 8.93243,8.36209 41.81761,23.50729 29.8674,-11.4545 l 3.06887,-8.75071 c 2.39681,1.23985 4.84416,2.65765 7.36052,4.26944 5.786,-25.51317 11.64977,-50.98445 19.91099,-75.19755 -0.75521,10.45806 -3.3826,20.91469 -1.89558,31.37275 10.18759,14.13822 20.69048,29.10546 28.4448,36.85351 1.47969,-0.53332 2.98987,-1.38375 4.52997,-2.43803 l 3.52902,9.40932 c -39.43969,9.0932 -17.70284,33.68944 6.63639,20.41896 15.53923,-7.15034 26.68259,-14.81351 8.53381,-25.89586 l -6.40174,-14.46062 c 1.32475,-1.18454 2.66306,-2.35895 4.03133,-3.46831 l -21.3336,-40.33915 c 4.8622,-17.28885 14.63202,-38.70128 14.60372,-51.8803 0.81538,-0.29416 1.63456,-0.59334 2.46389,-0.90704 -4.23839,-19.92979 6.16301,-42.82924 -4.7408,-62.74936 l 10.90421,19.92019 c 2.96408,-1.54861 5.79514,-3.43521 8.59248,-5.75806 9.54633,12.9507 4.86842,19.66391 -0.0606,24.68263 -4.21785,6.52836 -11.9745,7.89539 -6.63638,16.93331 4.74078,5.62166 7.11122,7.09507 11.852,4.98005 4.39606,3.60723 10.12999,0.11615 13.2746,-5.47882 -3.47657,-11.51961 -2.68683,-9.45869 -6.1634,-12.45013 10.08369,-13.48475 11.56708,-14.7536 -2.93688,-38.17072 1.58323,-1.89185 3.18391,-3.90996 4.83247,-6.15092 -14.1346,-24.11515 -29.75719,-41.54904 -46.97901,-44.31586 l -2.79939,-3.99021 c 7.24529,-1.00092 11.78687,-11.94384 16.5928,-21.91336 8.66363,-0.25285 12.03168,-4.4012 8.06083,-13.94451 6.86272,-41.2556 -6.10435,-54.00455 -20.64247,-54.34914 -0.40087,-0.01 -0.80341,-0.009 -1.20627,0 z"
       style="opacity:1;fill:#1f220c;fill-opacity:1;fill-rule:nonzero;stroke:none;stroke-width:1.13688922;stroke-linejoin:miter;stroke-miterlimit:4;stroke-dasharray:none;stroke-opacity:1"
       id="path5273" />
  </g>
</svg>
