<?xml version="1.0" encoding="UTF-8" standalone="no"?>
<!-- Created with Inkscape (http://www.inkscape.org/) -->

<svg
   xmlns:dc="http://purl.org/dc/elements/1.1/"
   xmlns:cc="http://creativecommons.org/ns#"
   xmlns:rdf="http://www.w3.org/1999/02/22-rdf-syntax-ns#"
   xmlns:svg="http://www.w3.org/2000/svg"
   xmlns="http://www.w3.org/2000/svg"
   xmlns:sodipodi="http://sodipodi.sourceforge.net/DTD/sodipodi-0.dtd"
   xmlns:inkscape="http://www.inkscape.org/namespaces/inkscape"
   width="105.11346mm"
   height="100.76818mm"
   viewBox="0 0 372.44926 357.05261"
   id="svg2"
   version="1.1"
   inkscape:version="0.91 r13725"
   sodipodi:docname="logo.svg">
  <defs
     id="defs4" />
  <sodipodi:namedview
     id="base"
     pagecolor="#ffffff"
     bordercolor="#666666"
     borderopacity="1.0"
     inkscape:pageopacity="0.0"
     inkscape:pageshadow="2"
     inkscape:zoom="0.7"
     inkscape:cx="583.73362"
     inkscape:cy="110.39758"
     inkscape:document-units="px"
     inkscape:current-layer="g4276"
     showgrid="false"
     inkscape:window-width="1920"
     inkscape:window-height="1004"
     inkscape:window-x="0"
     inkscape:window-y="0"
     inkscape:window-maximized="1"
     fit-margin-top="0"
     fit-margin-left="0"
     fit-margin-right="0"
     fit-margin-bottom="0" />
  <metadata
     id="metadata7">
    <rdf:RDF>
      <cc:Work
         rdf:about="">
        <dc:format>image/svg+xml</dc:format>
        <dc:type
           rdf:resource="http://purl.org/dc/dcmitype/StillImage" />
        <dc:title></dc:title>
      </cc:Work>
    </rdf:RDF>
  </metadata>
  <g
     inkscape:label="Layer 1"
     inkscape:groupmode="layer"
     id="layer1"
     style="display:inline"
     transform="translate(-232.72379,-191.75887)" />
  <g
     inkscape:groupmode="layer"
     id="layer2"
     inkscape:label="Layer 2"
     style="display:inline"
     transform="translate(-232.72379,-191.75887)">
    <g
       id="g4155"
       transform="translate(22.857143,-175.71429)"
       inkscape:export-xdpi="265.80801"
       inkscape:export-ydpi="265.80801">
      <g
         id="g4276"
         transform="translate(4.2857144,2.8571432)">
        <g
           id="g4363">
          <path
             sodipodi:nodetypes="cccccccc"
             inkscape:connector-curvature="0"
             id="path4201"
             d="m 476.80986,523.28527 -6.06092,46.97209 c 15.91539,9.98197 38.14554,11.54427 70.20561,0 -4.51552,-20.21287 6.56599,-43.43655 -5.05077,-63.63961 l 11.61676,20.20306 c 8.41794,-4.18673 15.82572,-10.82511 24.24366,-21.71829 -31.10685,-50.52205 -68.98412,-72.12793 -114.65232,6.56599 z"
             style="fill:#000000;fill-opacity:1;fill-rule:evenodd;stroke:none;stroke-width:1px;stroke-linecap:butt;stroke-linejoin:miter;stroke-opacity:1" />
          <path
             sodipodi:nodetypes="cccccccccc"
             inkscape:connector-curvature="0"
             id="path4203"
             d="m 477.31494,570.76244 c -20.56571,81.04119 -25.66998,85.4922 -34.85026,107.07617 9.96656,0.16699 20.00196,3.70862 31.31472,10.6066 6.16432,-25.87555 12.41181,-51.70951 21.2132,-76.26652 -0.80459,10.6066 -3.60455,21.2132 -2.0203,31.81981 10.85372,14.33903 22.04323,29.51754 30.30457,37.37564 6.78025,-2.32634 14.13852,-10.42738 22.22336,-16.66751 L 522.7718,623.79545 c 6.22647,-21.07627 20.02164,-48.2075 14.14214,-59.599 z"
             style="fill:#000000;fill-opacity:1;fill-rule:evenodd;stroke:none;stroke-width:1px;stroke-linecap:butt;stroke-linejoin:miter;stroke-opacity:1" />
          <path
             sodipodi:nodetypes="ccccccccc"
             inkscape:connector-curvature="0"
             id="path4208"
             d="m 505.09413,474.79795 27.7792,0.50507 -14.14214,-19.1929 c 7.71903,-1.01514 12.5575,-12.11223 17.67767,-22.22335 9.23011,-0.25644 12.81679,-4.46328 8.5863,-14.14214 13.76273,-78.76062 -47.33053,-55.08099 -53.53809,-37.88072 -24.64541,-2.29345 -42.3274,16.13026 -6.06091,18.18275 -1.99544,13.3106 -22.65292,59.47599 21.71828,57.07361 z"
             style="fill:#000000;fill-opacity:1;fill-rule:evenodd;stroke:none;stroke-width:1px;stroke-linecap:butt;stroke-linejoin:miter;stroke-opacity:1" />
          <path
             sodipodi:nodetypes="cccccccc"
             inkscape:connector-curvature="0"
             id="path4210"
             d="m 474.78955,516.71928 c -3.46757,24.14961 -3.2062,19.49445 -23.2335,34.85026 -2.45074,6.70212 -1.86484,16.00708 -13.13199,15.15229 -5.44424,2.66728 -8.3011,-1.13389 -11.11168,-5.05076 -5.30258,0.7569 -5.64012,-3.45125 -1.51522,-12.12183 -1.79125,-9.24319 5.92948,-10.03129 16.16243,-8.5863 15.13689,-5.24356 19.15568,-17.0548 21.2132,-34.34519 z"
             style="fill:#000000;fill-opacity:1;fill-rule:evenodd;stroke:none;stroke-width:1px;stroke-linecap:butt;stroke-linejoin:miter;stroke-opacity:1" />
          <path
             sodipodi:nodetypes="cccccccc"
             inkscape:connector-curvature="0"
             id="path4212"
             d="m 552.5713,516.2142 c 15.42691,16.32388 9.89346,24.12633 4.04061,29.7995 -4.49364,6.62109 -12.75823,8.0063 -7.07107,17.17259 5.05076,5.70151 7.57615,7.19583 12.62691,5.05077 4.6835,3.65847 10.7919,0.1186 14.14213,-5.55584 -3.70389,-11.68323 -2.86209,-9.59298 -6.56598,-12.62691 11.28425,-14.3653 12.50296,-15.00415 -5.55585,-42.42641 z"
             style="fill:#000000;fill-opacity:1;fill-rule:evenodd;stroke:none;stroke-width:1px;stroke-linecap:butt;stroke-linejoin:miter;stroke-opacity:1" />
          <path
             sodipodi:nodetypes="cccccc"
             inkscape:connector-curvature="0"
             id="path4214"
             d="m 452.06112,671.77769 -3.03046,14.14214 c -22.3981,-24.62079 -39.0179,-9.84992 -18.18274,18.68782 9.51649,8.48087 44.55139,23.84162 31.8198,-11.61675 l 7.07107,-19.1929 z"
             style="fill:#000000;fill-opacity:1;fill-rule:evenodd;stroke:none;stroke-width:1px;stroke-linecap:butt;stroke-linejoin:miter;stroke-opacity:1" />
          <path
             sodipodi:nodetypes="cccccc"
             inkscape:connector-curvature="0"
             id="path4216"
             d="m 525.29718,671.77769 6.56599,16.66752 c -42.01849,9.22235 -18.8596,34.1671 7.07107,20.70813 16.55528,-7.2519 28.42683,-15.02421 9.09137,-26.26397 l -10.10152,-21.71828 z"
             style="fill:#000000;fill-opacity:1;fill-rule:evenodd;stroke:none;stroke-width:1px;stroke-linecap:butt;stroke-linejoin:miter;stroke-opacity:1" />
          <path
             sodipodi:nodetypes="cccccc"
             inkscape:connector-curvature="0"
             id="path4218"
             d="m 430.34284,542.47817 c -45.45738,-11.41215 -60.04898,59.51329 -126.26907,68.69037 l -3.53553,5.05076 8.08122,-1.51523 c 57.4529,3.99315 73.72765,-61.12213 123.23861,-66.16499 z"
             style="fill:#000000;fill-opacity:1;fill-rule:evenodd;stroke:none;stroke-width:1px;stroke-linecap:butt;stroke-linejoin:miter;stroke-opacity:1" />
          <path
             sodipodi:nodetypes="ccccc"
             inkscape:connector-curvature="0"
             id="path4220"
             d="m 300.53824,611.16854 c -5.94323,18.09775 -18.07536,31.51495 -28.28427,42.4264 7.09356,8.21619 8.27545,3.69079 14.14214,4.54569 12.64835,-17.17259 24.85393,-32.32487 27.27411,-49.49746 z"
             style="display:inline;fill:#000000;fill-opacity:1;fill-rule:evenodd;stroke:none;stroke-width:1px;stroke-linecap:butt;stroke-linejoin:miter;stroke-opacity:1" />
          <path
             sodipodi:nodetypes="cccccccccccccccccccccccccc"
             inkscape:connector-curvature="0"
             id="path4223"
             d="m 403.5738,624.30052 c 4.10698,21.73994 -3.49073,23.67195 16.16244,71.72083 -6.52594,19.48737 -29.13467,16.66441 -17.17259,-0.50507 5.55585,-11.36411 -9.09138,-19.05084 -9.09138,-20.70813 l -9.59645,20.70813 c -2.52538,27.42506 -30.30457,17.50364 -11.61675,2.52538 3.96407,-6.73435 1.62673,-13.4687 -1.01015,-20.20305 -20.74253,8.18806 -28.88458,-0.52216 -44.95179,-1.01015 3.61322,15.0124 3.94208,23.05367 6.06091,32.32488 -5.6589,23.3405 -33.74473,9.63815 -14.64721,-5.55585 l -7.57614,-19.69797 c -4.8824,13.47437 -9.76481,16.86684 -14.64721,25.25382 -8.97071,20.48656 -28.67803,4.21637 -14.14214,-7.07107 7.86853,-3.19882 7.42762,-5.89255 10.10153,-9.09137 1.86828,-8.70848 4.84045,-16.76219 1.51522,-26.76905 -11.86197,-13.14846 -17.29696,-11.8837 -26.76904,-16.66751 -5.89256,1.33749 0,0 -13.63706,-4.04061 -34.09675,4.88034 -29.80808,-5.99736 -41.41625,-9.59645 -8.28019,-3.79294 -6.4894,-8.50143 0,-13.63706 26.25971,-5.70001 15.9174,-35.50144 51.0127,-23.23351 18.25654,-7.52554 48.46178,-16.52217 26.26397,7.57614 l 16.16244,7.07107 c 28.67896,0.32562 56.49079,5.85398 86.36804,-1.01015 24.46621,-12.12183 26.15899,-24.24366 32.82996,-36.36549 1.86801,1.95603 4.40576,1.23314 5.05076,8.08122 0.0628,14.60507 -7.81079,27.98915 -25.25381,39.90102 z"
             style="fill:#000000;fill-opacity:1;fill-rule:evenodd;stroke:none;stroke-width:1px;stroke-linecap:butt;stroke-linejoin:miter;stroke-opacity:1" />
        </g>
      </g>
    </g>
  </g>
</svg>
